<svg xmlns="http://www.w3.org/2000/svg" viewBox="0 0 568.67 684.56">
  <path fill="#000000" d="M315.71,82.89q107.66,0,215.3,0c17.09,0,31.28,6,40.59,20.94a45.49,45.49,0,0,1,6.43,32c-1.84,12.06-8.12,21.58-15.4,30.83q-69.56,88.53-139,177.1c-2.91,3.7-3.29,6-.15,10.05Q488.56,437.26,553.33,521c6.32,8.12,10.6,16.41,7.35,27.06-1.41,4.64-3.66,8.61-7.66,11.31-16.54,11.19-33,22.49-49.8,33.34-10.49,6.77-24.55,3.77-32.25-6.08q-57.71-73.7-115.36-147.45c-2.92-3.75-4.11-3.19-6.68.11q-43.73,56.12-87.67,112.07L132,716.45q-15.37,19.65-30.72,39.35c-10.1,13-23,15.21-36.66,6.1-13.86-9.23-27.73-18.43-41.55-27.72C8,724,5.86,709.18,17,694.87q58-74.73,115.89-149.59,74.32-95.88,148.78-191.69c2.75-3.53,2.85-5.75,0-9.37Q219.6,266,157.94,187.43c-1.91-2.44-4.05-3-6.88-3-17.81.06-35.63.17-53.44,0-9.35-.1-17.9-2.51-23.1-11.24-3-5-3.89-10.58-3.91-16.29-.07-15.32,0-30.64,0-46,0-18.72,9.21-28,27.83-28Q207.07,82.87,315.71,82.89Zm97.12,102.28a9.51,9.51,0,0,0-2.06-.67q-57.94,0-115.87,0c-.95,0-2.19-.37-2.72.68-.67,1.32.62,2.08,1.3,3q27.72,35.67,55.4,71.36c2.48,3.22,3.76,3.9,6.63.12,15.09-19.88,30.48-39.53,45.76-59.27C405.08,195.38,408.84,190.4,412.83,185.17Z" transform="translate(-9.96 -82.89)"/>
</svg>
